<?xml version="1.0" standalone="no"?><!DOCTYPE svg PUBLIC "-//W3C//DTD SVG 1.1//EN" "http://www.w3.org/Graphics/SVG/1.1/DTD/svg11.dtd"><svg class="icon" height="512" viewBox="0 0 1026 1024" version="1.1" xmlns="http://www.w3.org/2000/svg"><path d="M68.025863 511.847703c0-31.839186 3.241331-62.991029 9.49254-92.87139 19.090286 20.778583 64.146286 20.271593 75.115711-10.789072 19.69647 11.877198 46.051945 14.142622 46.051945 37.895013 0 78.76584 2.760391 163.186724 73.03164 164.292885 1.940791 0 39.143452 14.523366 56.808955 61.213558 6.125965 16.155554 30.328235 0 56.82699 0 13.321018 0 0 22.737409 0 71.892415 0 48.883476 103.698536 124.203585 103.698536 124.203585-0.4098 32.455389 0.801566 58.601456 3.490818 79.563397-23.400705-0.544063-43.096172 2.738348-58.624501 8.214043C226.058521 918.454857 68.025863 733.89038 68.025863 511.847703zM619.71438 948.319186c-2.350591-11.369205-12.306035-17.533245-30.737034-12.728861 14.656626-63.26256 21.797573-98.874114 52.32119-125.708525 44.12919-39.019209 5.182121-82.445025-28.315303-77.387146-26.48072 4.243288-9.883303-33.271984-33.426286-35.320987-23.668227-1.903718-54.529503-49.844352-88.561972-66.41672-17.951061-8.485573-35.70674-31.911327-63.541104-32.981417-24.611068-0.979914-60.655468 21.214434-60.655468 4.116039 0-55.121659-5.520783-94.48454-6.589871-110.169174-0.943843-12.65672-8.066755-4.243288 25.216251-3.390622 18.093339 0.453886 9.278121-37.097456 27.229182-38.566325 17.612399-1.413761 59.640485 16.80883 70.343389 9.519593 9.954442-6.745174 73.03164 168.626348 73.03164 28.993628 0-16.572368-8.405417-45.366607 0-61.068274 33.426286-62.101292 64.627225-112.63499 61.812728-120.032438-1.691303-4.15211-34.103609-7.63391-60.192563 1.30555-8.744078 2.955773 2.814497 17.008219-9.759061 19.96299-47.33445 11.096673-89.096016-12.92825-74.43939-35.629589 14.924149-23.172258 69.203162-10.171867 73.958451-56.625597 2.760391-26.636023 5.039843-57.587476 6.517729-80.487201 63.611241 10.063656 56.630607-84.041143-37.985189-94.17694 191.386802 2.230356 353.587601 128.048094 413.101839 302.712235-3.026912-2.774419-6.464626-4.532853-10.578661-4.931632-28.564791-72.782153-97.964337-20.126309-74.43939 44.060055-126.226536 98.655687-93.868337 167.611366-52.374293 207.011319 21.797573 20.815656 42.437886 52.038638 56.078528 74.358231-14.797902 43.824595 54.26198 26.29135 88.29445-48.049848-43.239452 152.923679-164.069448 272.612446-316.3138 311.632658h0.004008z" fill="#39B6E5" /><path d="M502.614669 1023.693401c-20.941902 0-40.06926-1.818552-53.323146-4.70018C193.892697 987.383483 0.063123 770.281456 0.063123 511.460947 0.063123 228.967202 229.723679 0.062121 513.001957 0.062121s512.938834 228.90508 512.938834 511.398826c0 279.623139-225.194834 507.067366-504.996321 511.219476a167.075319 167.075319 0 0 1-18.329801 1.012978zM513.001957 93.335295c-231.8338 0-419.665659 187.214654-419.66566 418.125652 0 211.536157 158.542654 389.11499 371.091789 415.571664 10.52155 2.167233 23.368642 3.388618 38.186583 3.388618 3.12811 0 6.264235-0.204399 9.386333-0.603178l5.441628-0.372728c229.922067-2.28346 415.224986-188.73362 415.224986-417.983374 0-230.912-187.831859-418.126654-419.665659-418.126654z" fill="#28374F" /></svg>